<?xml version="1.0" encoding="UTF-8" standalone="no"?>
<!-- Created with Inkscape (http://www.inkscape.org/) -->

<svg
   width="284.83374mm"
   height="135.90685mm"
   viewBox="0 0 284.83374 135.90685"
   version="1.1"
   id="svg5"
   xml:space="preserve"
   inkscape:version="1.2.1 (9c6d41e, 2022-07-14)"
   sodipodi:docname="inkscape-infinity.svg"
   xmlns:inkscape="http://www.inkscape.org/namespaces/inkscape"
   xmlns:sodipodi="http://sodipodi.sourceforge.net/DTD/sodipodi-0.dtd"
   xmlns="http://www.w3.org/2000/svg"
   xmlns:svg="http://www.w3.org/2000/svg"><sodipodi:namedview
     id="namedview7"
     pagecolor="#ffffff"
     bordercolor="#000000"
     borderopacity="0.25"
     inkscape:showpageshadow="2"
     inkscape:pageopacity="0.0"
     inkscape:pagecheckerboard="0"
     inkscape:deskcolor="#d1d1d1"
     inkscape:document-units="mm"
     showgrid="false"
     inkscape:zoom="0.45295643"
     inkscape:cx="515.50212"
     inkscape:cy="477.97092"
     inkscape:window-width="1440"
     inkscape:window-height="847"
     inkscape:window-x="0"
     inkscape:window-y="25"
     inkscape:window-maximized="0"
     inkscape:current-layer="layer1" /><defs
     id="defs2" /><g
     inkscape:label="Layer 1"
     inkscape:groupmode="layer"
     id="layer1"
     transform="translate(-6.0831469,-37.046574)"><g
       id="g1447"
       transform="translate(0.19121507,-0.54803391)"><path
         style="fill:#005d00;fill-opacity:1;stroke:none;stroke-width:1;stroke-dasharray:none;stroke-opacity:1"
         d="M 10.248896,79.571498 C -6.8530924,130.62429 29.450785,152.42034 65.971703,152.66169 136.81,153.12981 171.41358,20.477441 271.18613,62.838295 173.24172,-14.259077 111.49599,128.47468 59.887109,111.90673 33.177796,103.33226 57.693061,47.784806 140.43171,66.504188 90.86505,23.878257 27.350884,28.518704 10.248896,79.571498 Z"
         id="path5476"
         sodipodi:nodetypes="zscscz" /><path
         style="fill:#005d00;fill-opacity:1;stroke:none;stroke-width:1;stroke-dasharray:none;stroke-opacity:1"
         d="M 286.75111,130.4285 C 302.77566,82.592083 267.54922,57.57966 231.0283,57.33831 160.19001,56.87019 125.58643,189.52256 25.813876,147.1617 123.75829,224.25907 185.50402,81.52532 237.11289,98.093274 c 26.70932,8.574466 2.19405,64.121916 -80.54459,45.402536 49.56665,42.62593 112.00338,41.20185 130.18281,-13.06731 z"
         id="path1437"
         sodipodi:nodetypes="sscscs" /></g></g></svg>
