<?xml version="1.0" encoding="UTF-8" standalone="no"?>
<!-- Created with Inkscape (http://www.inkscape.org/) -->

<svg
   width="281.27832mm"
   height="134.32716mm"
   viewBox="0 0 281.27832 134.32716"
   version="1.1"
   id="svg5"
   xml:space="preserve"
   inkscape:version="1.2.1 (9c6d41e, 2022-07-14)"
   sodipodi:docname="inkscape-infinity.svg"
   xmlns:inkscape="http://www.inkscape.org/namespaces/inkscape"
   xmlns:sodipodi="http://sodipodi.sourceforge.net/DTD/sodipodi-0.dtd"
   xmlns="http://www.w3.org/2000/svg"
   xmlns:svg="http://www.w3.org/2000/svg"><sodipodi:namedview
     id="namedview7"
     pagecolor="#ffffff"
     bordercolor="#000000"
     borderopacity="0.25"
     inkscape:showpageshadow="2"
     inkscape:pageopacity="0.0"
     inkscape:pagecheckerboard="0"
     inkscape:deskcolor="#d1d1d1"
     inkscape:document-units="mm"
     showgrid="false"
     inkscape:zoom="0.45295643"
     inkscape:cx="515.50212"
     inkscape:cy="477.97092"
     inkscape:window-width="1440"
     inkscape:window-height="847"
     inkscape:window-x="0"
     inkscape:window-y="25"
     inkscape:window-maximized="0"
     inkscape:current-layer="layer1" /><defs
     id="defs2" /><g
     inkscape:label="Layer 1"
     inkscape:groupmode="layer"
     id="layer1"
     transform="translate(-7.8608463,-37.836419)"><g
       id="g10148"
       transform="matrix(1,0,0,-1,0.85460008,215.95634)"
       inkscape:export-filename="infinity-logo.svg"
       inkscape:export-xdpi="96"
       inkscape:export-ydpi="96"
       style="fill:#3b5526;fill-opacity:1"><path
         style="fill:#3b5526;fill-opacity:1;stroke:none;stroke-width:1;stroke-dasharray:none;stroke-opacity:1"
         d="M 52.463196,114.23143 C 39.301226,106.98442 22.570096,97.692928 12.007156,82.648848 42.271346,14.058019 121.28874,53.065898 139.31221,73.211798 83.896046,58.266098 36.973016,85.208808 52.463196,114.23143 Z"
         id="path10142"
         sodipodi:nodetypes="cccc" /><path
         style="fill:#3b5526;fill-opacity:1;stroke:none;stroke-width:1;stroke-dasharray:none;stroke-opacity:1"
         d="M 9.5178505,85.882045 C -2.1701831,134.95852 28.71974,158.7309 65.240658,158.97225 136.07896,159.44037 170.68254,26.787988 270.45509,69.148842 172.51068,-7.9485297 105.44657,136.92226 53.719715,120.72637 35.010086,114.86831 18.132404,101.40508 9.5178505,85.882045 Z"
         id="path5476"
         sodipodi:nodetypes="cscsc" /><path
         style="fill:#3b5526;fill-opacity:1;stroke:none;stroke-width:1;stroke-dasharray:none;stroke-opacity:1"
         d="M 285.7919,135.29395 C 297.47994,86.217475 266.26179,64.742659 229.74087,64.501309 158.90257,64.033189 123.97077,198.32668 26.167549,154.32471 105.73146,231.09386 188.73133,85.747671 240.45818,101.94355 c 18.70963,5.85806 36.71917,17.82736 45.33372,33.3504 z"
         id="path8674"
         sodipodi:nodetypes="cscsc" /><path
         style="fill:#3b5526;fill-opacity:1;stroke:none;stroke-width:1;stroke-dasharray:none;stroke-opacity:1"
         d="m 243.10754,107.68124 c 13.16197,7.24701 29.8931,16.5385 40.45604,31.58258 -30.26419,68.59083 -109.28158,29.58295 -127.30505,9.43705 55.41616,14.9457 102.33919,-11.99701 86.84901,-41.01963 z"
         id="path8676"
         sodipodi:nodetypes="cccc" /></g></g></svg>
